<svg width="134" height="53" viewBox="0 0 134 53" fill="none" xmlns="http://www.w3.org/2000/svg">
<rect x="1" y="35" width="132" height="18" fill="#800000"/>
<path d="M11.0216 49.2012C10.2263 49.2012 9.48862 49.0766 8.80838 48.8275C8.13772 48.5689 7.55329 48.2048 7.05509 47.7353C6.56647 47.2659 6.18323 46.715 5.90539 46.0826C5.62754 45.4407 5.48862 44.7365 5.48862 43.9701C5.48862 43.2036 5.62754 42.5042 5.90539 41.8719C6.18323 41.2299 6.56647 40.6743 7.05509 40.2048C7.55329 39.7353 8.13772 39.376 8.80838 39.1269C9.48862 38.8683 10.2263 38.7389 11.0216 38.7389C11.9509 38.7389 12.7796 38.9018 13.5078 39.2275C14.2455 39.5533 14.8587 40.0228 15.3473 40.6359L13.5365 42.2743C13.2108 41.891 12.8515 41.5988 12.4587 41.3976C12.0754 41.1964 11.6443 41.0958 11.1653 41.0958C10.7533 41.0958 10.3749 41.1629 10.0299 41.297C9.68503 41.4311 9.38802 41.6275 9.13892 41.8862C8.8994 42.1353 8.70778 42.4371 8.56407 42.7916C8.42994 43.1461 8.36287 43.5389 8.36287 43.9701C8.36287 44.4012 8.42994 44.794 8.56407 45.1485C8.70778 45.503 8.8994 45.8096 9.13892 46.0683C9.38802 46.3174 9.68503 46.509 10.0299 46.6431C10.3749 46.7772 10.7533 46.8443 11.1653 46.8443C11.6443 46.8443 12.0754 46.7437 12.4587 46.5425C12.8515 46.3413 13.2108 46.0491 13.5365 45.6659L15.3473 47.3042C14.8587 47.9078 14.2455 48.3772 13.5078 48.7126C12.7796 49.0383 11.9509 49.2012 11.0216 49.2012ZM30.3887 49.2012C29.5839 49.2012 28.8414 49.0719 28.1612 48.8132C27.481 48.5545 26.8869 48.1904 26.3792 47.721C25.881 47.2419 25.4929 46.6862 25.2151 46.0539C24.9372 45.4216 24.7983 44.7269 24.7983 43.9701C24.7983 43.2132 24.9372 42.5186 25.2151 41.8862C25.4929 41.2539 25.881 40.703 26.3792 40.2335C26.8869 39.7545 27.481 39.3856 28.1612 39.1269C28.8414 38.8683 29.5839 38.7389 30.3887 38.7389C31.2031 38.7389 31.9456 38.8683 32.6163 39.1269C33.2965 39.3856 33.8857 39.7545 34.3839 40.2335C34.8821 40.703 35.2702 41.2539 35.548 41.8862C35.8354 42.5186 35.9792 43.2132 35.9792 43.9701C35.9792 44.7269 35.8354 45.4263 35.548 46.0683C35.2702 46.7006 34.8821 47.2515 34.3839 47.721C33.8857 48.1904 33.2965 48.5545 32.6163 48.8132C31.9456 49.0719 31.2031 49.2012 30.3887 49.2012ZM30.3887 46.8443C30.772 46.8443 31.1265 46.7772 31.4522 46.6431C31.7875 46.509 32.075 46.3174 32.3145 46.0683C32.5636 45.8096 32.7552 45.503 32.8893 45.1485C33.033 44.794 33.1049 44.4012 33.1049 43.9701C33.1049 43.5293 33.033 43.1365 32.8893 42.7916C32.7552 42.4371 32.5636 42.1353 32.3145 41.8862C32.075 41.6275 31.7875 41.4311 31.4522 41.297C31.1265 41.1629 30.772 41.0958 30.3887 41.0958C30.0055 41.0958 29.6462 41.1629 29.3109 41.297C28.9851 41.4311 28.6977 41.6275 28.4486 41.8862C28.2091 42.1353 28.0175 42.4371 27.8738 42.7916C27.7396 43.1365 27.6726 43.5293 27.6726 43.9701C27.6726 44.4012 27.7396 44.794 27.8738 45.1485C28.0175 45.503 28.2091 45.8096 28.4486 46.0683C28.6977 46.3174 28.9851 46.509 29.3109 46.6431C29.6462 46.7772 30.0055 46.8443 30.3887 46.8443ZM46.3797 49V38.9401H49.2252V46.7437H54.0252V49H46.3797ZM64.0614 49V38.9401H66.9069V46.7437H71.7069V49H64.0614ZM84.3586 42.8347H89.0293V44.9617H84.3586V42.8347ZM84.5598 46.8012H89.8197V49H81.7431V38.9401H89.6329V41.1389H84.5598V46.8012ZM105.339 49.2012C104.544 49.2012 103.806 49.0766 103.126 48.8275C102.445 48.5689 101.856 48.2048 101.358 47.7353C100.869 47.2659 100.486 46.715 100.208 46.0826C99.9305 45.4407 99.7916 44.7365 99.7916 43.9701C99.7916 43.2036 99.9305 42.5042 100.208 41.8719C100.486 41.2299 100.874 40.6743 101.372 40.2048C101.871 39.7353 102.46 39.376 103.14 39.1269C103.83 38.8683 104.582 38.7389 105.396 38.7389C106.345 38.7389 107.193 38.897 107.94 39.2132C108.687 39.5293 109.305 39.9844 109.794 40.5784L107.983 42.2168C107.638 41.8431 107.265 41.5653 106.862 41.3832C106.469 41.1916 106.029 41.0958 105.54 41.0958C105.109 41.0958 104.716 41.1629 104.362 41.297C104.007 41.4311 103.705 41.6275 103.456 41.8862C103.207 42.1353 103.011 42.4371 102.867 42.7916C102.733 43.1365 102.666 43.5293 102.666 43.9701C102.666 44.3916 102.733 44.7796 102.867 45.1341C103.011 45.4886 103.207 45.7952 103.456 46.0539C103.705 46.303 104.002 46.4994 104.347 46.6431C104.702 46.7772 105.09 46.8443 105.511 46.8443C105.933 46.8443 106.345 46.7772 106.747 46.6431C107.15 46.4994 107.557 46.2599 107.969 45.9246L109.564 47.9222C108.989 48.3341 108.323 48.6503 107.566 48.8707C106.81 49.091 106.067 49.2012 105.339 49.2012ZM107.049 47.5485V43.7545H109.564V47.9222L107.049 47.5485ZM122.894 42.8347H127.564V44.9617H122.894V42.8347ZM123.095 46.8012H128.355V49H120.278V38.9401H128.168V41.1389H123.095V46.8012Z" fill="white"/>
<path d="M0.857543 30V1.42456H15.4718C19.2275 1.42456 22.0306 2.11854 23.8812 3.50649C25.7318 4.86722 26.6571 6.66339 26.6571 8.895C26.6571 10.3646 26.2625 11.6573 25.4732 12.7731C24.7112 13.8617 23.6226 14.7326 22.2075 15.3857C20.8195 16.0116 19.1594 16.3246 17.2272 16.3246L18.0436 14.3652C20.0575 14.3652 21.8129 14.6781 23.3097 15.3041C24.8065 15.9028 25.9631 16.7873 26.7795 17.9575C27.6232 19.1005 28.045 20.5021 28.045 22.1622C28.045 24.6387 27.0381 26.5709 25.0242 27.9589C23.0375 29.3196 20.1256 30 16.2883 30H0.857543ZM8.85866 24.1624H15.6351C17.0231 24.1624 18.0708 23.9311 18.7784 23.4685C19.5132 22.9786 19.8806 22.2438 19.8806 21.2641C19.8806 20.2844 19.5132 19.5632 18.7784 19.1005C18.0708 18.6106 17.0231 18.3657 15.6351 18.3657H8.28716V12.7731H14.4105C15.7712 12.7731 16.7918 12.5418 17.4721 12.0791C18.1525 11.6165 18.4927 10.9225 18.4927 9.9972C18.4927 9.0719 18.1525 8.39153 17.4721 7.95609C16.7918 7.49344 15.7712 7.26212 14.4105 7.26212H8.85866V24.1624ZM51.2536 30L39.0478 1.42456H47.7838L58.0709 26.1627H52.9273L63.4594 1.42456H71.4606L59.2139 30H51.2536ZM87.1847 30.5715C84.8987 30.5715 82.7895 30.2041 80.8573 29.4693C78.925 28.7345 77.2377 27.7004 75.7953 26.3668C74.3802 25.0061 73.278 23.4276 72.4888 21.6315C71.6995 19.8353 71.3049 17.8622 71.3049 15.7123C71.3049 13.5623 71.6995 11.5893 72.4888 9.79308C73.278 7.99691 74.3802 6.43207 75.7953 5.09855C77.2377 3.73781 78.925 2.69005 80.8573 1.95525C82.7895 1.22045 84.8987 0.853056 87.1847 0.853056C89.4979 0.853056 91.6071 1.22045 93.5121 1.95525C95.4444 2.69005 97.1181 3.73781 98.5332 5.09855C99.9484 6.43207 101.051 7.99691 101.84 9.79308C102.656 11.5893 103.064 13.5623 103.064 15.7123C103.064 17.8622 102.656 19.8489 101.84 21.6723C101.051 23.4685 99.9484 25.0333 98.5332 26.3668C97.1181 27.7004 95.4444 28.7345 93.5121 29.4693C91.6071 30.2041 89.4979 30.5715 87.1847 30.5715ZM87.1847 23.8767C88.2733 23.8767 89.2802 23.6862 90.2055 23.3052C91.158 22.9242 91.9745 22.3799 92.6549 21.6723C93.3624 20.9375 93.9067 20.0666 94.2877 19.0597C94.696 18.0527 94.9001 16.9369 94.9001 15.7123C94.9001 14.4604 94.696 13.3446 94.2877 12.3649C93.9067 11.3579 93.3624 10.5007 92.6549 9.79308C91.9745 9.05829 91.158 8.50039 90.2055 8.11938C89.2802 7.73838 88.2733 7.54787 87.1847 7.54787C86.0961 7.54787 85.0756 7.73838 84.123 8.11938C83.1977 8.50039 82.3813 9.05829 81.6737 9.79308C80.9934 10.5007 80.4491 11.3579 80.0408 12.3649C79.6598 13.3446 79.4693 14.4604 79.4693 15.7123C79.4693 16.9369 79.6598 18.0527 80.0408 19.0597C80.4491 20.0666 80.9934 20.9375 81.6737 21.6723C82.3813 22.3799 83.1977 22.9242 84.123 23.3052C85.0756 23.6862 86.0961 23.8767 87.1847 23.8767ZM121.545 30.5715C119.286 30.5715 117.19 30.2177 115.258 29.5101C113.353 28.7753 111.693 27.7412 110.278 26.4077C108.89 25.0741 107.801 23.5093 107.012 21.7131C106.223 19.8897 105.828 17.8895 105.828 15.7123C105.828 13.5351 106.223 11.5484 107.012 9.75226C107.801 7.92888 108.89 6.35043 110.278 5.0169C111.693 3.68339 113.353 2.66283 115.258 1.95525C117.19 1.22045 119.286 0.853056 121.545 0.853056C124.185 0.853056 126.539 1.31571 128.607 2.24101C130.702 3.16631 132.444 4.49983 133.832 6.24157L128.689 10.8953C127.763 9.80669 126.743 8.97664 125.627 8.40513C124.538 7.83363 123.314 7.54787 121.953 7.54787C120.783 7.54787 119.708 7.73838 118.728 8.11938C117.748 8.50039 116.905 9.05829 116.197 9.79308C115.517 10.5007 114.972 11.3579 114.564 12.3649C114.183 13.3718 113.993 14.4876 113.993 15.7123C113.993 16.9369 114.183 18.0527 114.564 19.0597C114.972 20.0666 115.517 20.9375 116.197 21.6723C116.905 22.3799 117.748 22.9242 118.728 23.3052C119.708 23.6862 120.783 23.8767 121.953 23.8767C123.314 23.8767 124.538 23.5909 125.627 23.0194C126.743 22.4479 127.763 21.6179 128.689 20.5293L133.832 25.183C132.444 26.8975 130.702 28.231 128.607 29.1836C126.539 30.1089 124.185 30.5715 121.545 30.5715Z" fill="#006F80"/>
<path d="M35.4089 30.3674C34.1026 30.3674 33.0004 29.932 32.1024 29.0611C31.2043 28.1902 30.7552 27.088 30.7552 25.7545C30.7552 24.3666 31.2043 23.2644 32.1024 22.4479C33.0004 21.6043 34.1026 21.1824 35.4089 21.1824C36.7152 21.1824 37.8174 21.6043 38.7155 22.4479C39.6136 23.2644 40.0627 24.3666 40.0627 25.7545C40.0627 27.088 39.6136 28.1902 38.7155 29.0611C37.8174 29.932 36.7152 30.3674 35.4089 30.3674Z" fill="#F7791E"/>
</svg>
